<svg id="Capa_1" enable-background="new 0 0 512 512" height="512" viewBox="0 0 512 512" width="512" xmlns="http://www.w3.org/2000/svg"><g><path d="m360.649 263.19c.762-60.285-7.787-121.431-35.747-175.47-15.736-31.384-36.329-59.912-61.208-84.791-1.876-1.875-4.419-2.929-7.072-2.929-2.652 0-5.196 1.054-7.071 2.929l-1.49 1.49c-41.928 41.927-71.65 94.318-85.963 151.511-13.611 56.59-13.154 116.077-5.246 173.401 7.039 48.156 20.911 95.285 41.233 140.09 1.621 3.574 5.183 5.87 9.107 5.87h33.162l6.512 28.908c1.027 4.561 5.079 7.802 9.755 7.802s8.728-3.241 9.755-7.802l6.512-28.908h33.162c3.395 0 6.558-1.723 8.4-4.574 10.467-16.207 20.035-39.422 27.667-67.136 1.466-5.324-1.662-10.83-6.986-12.296-5.327-1.466-10.83 1.662-12.296 6.986-6.386 23.19-14.075 42.755-22.382 57.02h-23.059l13.979-62.049c.668-2.964-.048-6.071-1.946-8.444s-4.772-3.754-7.81-3.754h-49.993c-3.038 0-5.912 1.381-7.81 3.754-1.897 2.373-2.614 5.48-1.946 8.444l13.979 62.049h-22.167c-16.383-37.366-28.117-76.353-34.996-116.148.511.012 1.022.023 1.532.023 28.45 0 55.593-18.45 81.979-36.386 27.565-18.738 53.73-36.505 78.368-32.229-.305 16.612-1.411 33.607-3.305 50.636-.61 5.489 3.345 10.434 8.834 11.044 5.495.608 10.434-3.345 11.044-8.834 2.256-20.275 3.435-40.516 3.513-60.207zm-91.533 137.853-12.493 55.456-12.493-55.456zm-88.938-231.891c28.508 0 55.663-18.458 82.012-36.368 16.127-10.962 32.723-22.228 48.598-28.297 5.422 11.629 10.136 23.64 14.058 35.876-25.576 3.034-50.075 19.687-73.889 35.873-27.231 18.509-53.09 36.084-77.455 32.392.125-1.363.245-2.724.383-4.095 1.172-11.85 3.078-23.717 5.658-35.394.21.003.423.013.635.013zm-8.753 89.091c-.075-9.819.139-19.714.648-29.592 2.739.354 5.466.531 8.183.531 28.383-.002 55.528-18.45 81.943-36.405 23.914-16.255 46.623-31.686 68.216-32.833 2.452 9.887 4.418 19.923 5.868 30.008-29.657-1.544-57.9 17.632-85.336 36.283-27.981 19.022-54.53 37.053-79.522 32.008zm85.155-233.91c17.621 18.809 32.746 39.669 45.124 62.224-17.342 6.98-34.279 18.486-50.758 29.687-23.157 15.74-45.228 30.738-66.215 32.69 13.659-46.5 38.282-89.234 71.849-124.601zm-5.626 261.905c-26.495 18.01-51.64 35.088-75.357 32.66-1.738-13.306-2.939-26.773-3.593-40.238 2.763.361 5.513.534 8.253.534 28.365 0 55.509-18.452 81.935-36.416 26.85-18.253 52.335-35.561 76.352-32.54 1.154 13.239 1.831 26.652 2.022 40.054-31.173-3.777-60.822 16.376-89.612 35.946z"/><circle cx="341.365" cy="361.889" r="10"/></g></svg>